<svg width="18" height="18" viewBox="0 0 18 18" fill="none" xmlns="http://www.w3.org/2000/svg">
<path d="M15.1875 11.5312H15.0947L14.0794 9.16309C14.2515 9.23854 14.4371 9.2787 14.625 9.28122C14.6996 9.28122 14.7711 9.25159 14.8239 9.19884C14.8766 9.1461 14.9062 9.07456 14.9062 8.99997V6.74997C14.9062 6.67538 14.8766 6.60384 14.8239 6.5511C14.7711 6.49835 14.6996 6.46872 14.625 6.46872C14.3321 6.47031 14.047 6.56331 13.8095 6.73474C13.5721 6.90617 13.394 7.14747 13.3003 7.42497C13.2176 7.30942 13.1119 7.2121 12.99 7.13905C12.8681 7.066 12.7325 7.01877 12.5916 7.00028C12.4129 6.9772 12.2315 6.98866 12.0572 7.03403H11.8125C11.3372 7.03403 11.1263 6.75278 10.7944 6.29434L10.6284 6.06091C10.7986 6.05222 10.9635 5.99887 11.1066 5.90622C11.2151 5.82745 11.307 5.72801 11.377 5.61362C11.4469 5.49923 11.4936 5.37214 11.5144 5.23966C11.6058 5.18699 11.6857 5.11656 11.7495 5.03251C11.8133 4.94846 11.8595 4.8525 11.8856 4.75028C11.8975 4.66966 11.8896 4.58735 11.8627 4.51044C11.8357 4.43353 11.7905 4.3643 11.7309 4.30872C11.6161 4.1121 11.5532 3.88949 11.5481 3.66184C11.6207 3.6575 11.6888 3.62519 11.7381 3.57169C11.7874 3.5182 11.8141 3.44769 11.8125 3.37497C11.8125 3.07687 11.7533 2.78174 11.6383 2.50672C11.5233 2.23171 11.3548 1.98228 11.1426 1.77294C10.9304 1.5636 10.6787 1.39851 10.4021 1.28728C10.1255 1.17604 9.82963 1.12087 9.53156 1.12497C8.94664 1.13648 8.38888 1.37397 7.97519 1.78766C7.5615 2.20134 7.32401 2.75911 7.3125 3.34403C7.30724 3.64224 7.36177 3.93848 7.47287 4.21527C7.58397 4.49205 7.7494 4.74378 7.95937 4.95559C8.0216 5.01744 8.08734 5.07566 8.15625 5.12997C7.07062 5.39434 6.49969 6.41247 6.20719 7.29559C6.12396 7.21172 6.02493 7.14518 5.91583 7.0998C5.80673 7.05442 5.68972 7.03111 5.57156 7.03122H2.58469C2.4347 7.03097 2.28705 7.06845 2.15533 7.1402C2.02362 7.21196 1.91207 7.31568 1.83094 7.44184C1.79028 7.5045 1.77619 7.58074 1.79175 7.65379C1.80731 7.72684 1.85125 7.79072 1.91391 7.83138C1.97656 7.87203 2.0528 7.88612 2.12586 7.87057C2.19891 7.85501 2.26278 7.81106 2.30344 7.74841C2.33374 7.70146 2.37541 7.66293 2.42457 7.63638C2.47374 7.60983 2.52881 7.59612 2.58469 7.59653H3.09375V8.44028C3.09375 8.51487 3.12338 8.58641 3.17613 8.63915C3.22887 8.6919 3.30041 8.72153 3.375 8.72153H4.78125C4.85584 8.72153 4.92738 8.6919 4.98012 8.63915C5.03287 8.58641 5.0625 8.51487 5.0625 8.44028V7.59372H5.57156C5.61551 7.59372 5.65904 7.60238 5.69964 7.6192C5.74025 7.63601 5.77714 7.66067 5.80822 7.69175C5.8393 7.72283 5.86395 7.75972 5.88077 7.80033C5.89759 7.84093 5.90625 7.88445 5.90625 7.92841V10.0743C5.90551 10.1626 5.86992 10.247 5.80723 10.3092C5.74455 10.3713 5.65984 10.4062 5.57156 10.4062H2.58469C2.50414 10.4084 2.42558 10.381 2.36389 10.3292C2.3022 10.2774 2.26168 10.2047 2.25 10.125H2.8125C2.88709 10.125 2.95863 10.0953 3.01137 10.0426C3.06412 9.98985 3.09375 9.91831 3.09375 9.84372C3.09375 9.76913 3.06412 9.69759 3.01137 9.64485C2.95863 9.5921 2.88709 9.56247 2.8125 9.56247H2.25V8.99997H2.53125C2.60584 8.99997 2.67738 8.97034 2.73012 8.91759C2.78287 8.86485 2.8125 8.79331 2.8125 8.71872C2.8125 8.64413 2.78287 8.57259 2.73012 8.51985C2.67738 8.4671 2.60584 8.43747 2.53125 8.43747H1.125C1.05041 8.43747 0.978871 8.4671 0.926126 8.51985C0.873382 8.57259 0.84375 8.64413 0.84375 8.71872C0.84375 8.79331 0.873382 8.86485 0.926126 8.91759C0.978871 8.97034 1.05041 8.99997 1.125 8.99997H1.6875V9.56247H0.5625C0.487908 9.56247 0.416371 9.5921 0.363626 9.64485C0.310882 9.69759 0.28125 9.76913 0.28125 9.84372C0.28125 9.91831 0.310882 9.98985 0.363626 10.0426C0.416371 10.0953 0.487908 10.125 0.5625 10.125H1.6875C1.70042 10.3528 1.79993 10.5671 1.96568 10.7239C2.13143 10.8808 2.35086 10.9684 2.57906 10.9687H3.98531C3.85516 11.0963 3.74431 11.2422 3.65625 11.4018C3.28067 12.1384 3.08774 12.9545 3.09375 13.7812C3.09375 13.8558 3.12338 13.9273 3.17613 13.9801C3.22887 14.0328 3.30041 14.0625 3.375 14.0625H4.23844C4.31041 14.603 4.57624 15.099 4.98648 15.4582C5.39672 15.8174 5.92346 16.0155 6.46875 16.0155C7.01404 16.0155 7.54078 15.8174 7.95102 15.4582C8.36126 15.099 8.62708 14.603 8.69906 14.0625H12.9572C13.0113 14.4922 13.1883 14.8971 13.4669 15.2287C13.7456 15.5603 14.114 15.8044 14.5279 15.9317C14.9418 16.0591 15.3837 16.0643 15.8006 15.9467C16.2174 15.829 16.5914 15.5936 16.8777 15.2687C17.164 14.9437 17.3505 14.5431 17.4147 14.1147C17.4789 13.6864 17.4181 13.2487 17.2396 12.8541C17.0612 12.4595 16.7726 12.1247 16.4086 11.8901C16.0446 11.6554 15.6206 11.5308 15.1875 11.5312ZM4.5 8.15622H3.65625V7.59372H4.5V8.15622ZM14.3438 7.07903V8.67091C14.1789 8.61293 14.0362 8.50522 13.9352 8.36265C13.8342 8.22008 13.78 8.04968 13.78 7.87497C13.78 7.70026 13.8342 7.52986 13.9352 7.38729C14.0362 7.24472 14.1789 7.13701 14.3438 7.07903ZM12.51 7.55434C12.6203 7.57085 12.7227 7.62107 12.8033 7.69811C12.8838 7.77516 12.9386 7.87525 12.96 7.98466L13.0331 8.15622C12.6415 8.35751 12.2047 8.45438 11.7647 8.43747C11.7259 8.27039 11.7462 8.09506 11.8221 7.94125C11.898 7.78744 12.0248 7.66465 12.1809 7.59372C12.287 7.55932 12.399 7.54688 12.51 7.55716V7.55434ZM11.1234 4.80934C11.0766 4.83293 11.0373 4.86913 11.01 4.91385C10.9827 4.95858 10.9684 5.01005 10.9688 5.06247C10.9667 5.13327 10.9498 5.20286 10.9193 5.26679C10.8888 5.33071 10.8453 5.38757 10.7916 5.43372C10.6312 5.54059 10.3331 5.51528 9.94781 5.36341C9.92725 5.36113 9.9065 5.36113 9.88594 5.36341L9.84375 5.32684V4.24966C9.84375 4.09227 9.90627 3.94132 10.0176 3.83003C10.1289 3.71874 10.2798 3.65622 10.4372 3.65622H10.9688C10.9776 4.02029 11.0919 4.37397 11.2978 4.67434C11.2469 4.72877 11.1881 4.77523 11.1234 4.81216V4.80934ZM7.875 3.34966C7.88906 2.91328 8.0687 2.49862 8.37743 2.1899C8.68615 1.88117 9.10081 1.70153 9.53719 1.68747H9.5625C9.96148 1.68721 10.3476 1.82832 10.6525 2.08576C10.9573 2.3432 11.161 2.70032 11.2275 3.09372H10.4372C10.1308 3.09446 9.83726 3.21649 9.62064 3.43311C9.40402 3.64972 9.28199 3.94331 9.28125 4.24966V5.03997C8.884 4.97286 8.52388 4.76585 8.26596 4.45635C8.00805 4.14686 7.86937 3.7553 7.875 3.35247V3.34966ZM8.71875 5.62497C9.63844 5.62497 9.97594 6.10591 10.3331 6.61216C10.5919 6.98341 10.8956 7.38841 11.4019 7.53184C11.2426 7.78916 11.1706 8.09098 11.1966 8.39247C10.8475 8.31621 10.5182 8.1677 10.23 7.95651C9.94181 7.74531 9.70101 7.4761 9.52312 7.16622C9.5078 7.12905 9.48469 7.09559 9.45534 7.06811C9.42599 7.04062 9.39109 7.01975 9.35299 7.0069C9.31489 6.99405 9.27448 6.98952 9.23448 6.99361C9.19449 6.9977 9.15583 7.01032 9.12112 7.03062C9.08641 7.05091 9.05646 7.07842 9.03328 7.11127C9.0101 7.14413 8.99424 7.18157 8.98676 7.22107C8.97928 7.26058 8.98036 7.30123 8.98992 7.34028C8.99948 7.37934 9.0173 7.41589 9.04219 7.44747C9.14414 7.61856 9.26083 7.78042 9.39094 7.93122L9.36562 7.94809C9.10345 8.24966 8.91903 8.61078 8.82844 8.99997H6.46875V8.71872C6.48844 8.54716 6.80906 5.62497 8.71875 5.62497ZM6.46875 10.0715V9.56247H9C9.05625 9.56247 10.4062 9.57934 10.4062 10.9687V12.375H9.28125V11.8125C9.28836 11.6259 9.25685 11.4399 9.18869 11.266C9.12054 11.0922 9.01721 10.9343 8.88518 10.8023C8.75315 10.6703 8.59527 10.5669 8.42144 10.4988C8.24761 10.4306 8.06158 10.3991 7.875 10.4062H6.40406C6.44702 10.2999 6.46899 10.1862 6.46875 10.0715ZM6.46875 15.4687C6.07025 15.4683 5.68476 15.3269 5.38053 15.0695C5.0763 14.8121 4.87298 14.4554 4.80656 14.0625H5.38312C5.44789 14.3008 5.58928 14.5112 5.78548 14.6612C5.98168 14.8112 6.22178 14.8924 6.46875 14.8924C6.71572 14.8924 6.95582 14.8112 7.15202 14.6612C7.34822 14.5112 7.48961 14.3008 7.55438 14.0625H8.13094C8.06452 14.4554 7.8612 14.8121 7.55697 15.0695C7.25274 15.3269 6.86725 15.4683 6.46875 15.4687ZM5.985 14.0625H6.9525C6.90269 14.1464 6.83191 14.2159 6.74709 14.2642C6.66227 14.3125 6.56635 14.3379 6.46875 14.3379C6.37115 14.3379 6.27523 14.3125 6.19041 14.2642C6.10559 14.2159 6.03481 14.1464 5.985 14.0625ZM3.65625 13.5C3.69213 12.8526 3.8667 12.2205 4.16812 11.6465C4.28007 11.4384 4.44713 11.265 4.65102 11.1455C4.8549 11.0259 5.08775 10.9648 5.32406 10.9687H7.875C7.9874 10.9626 8.09983 10.9803 8.20496 11.0205C8.31008 11.0608 8.40555 11.1227 8.48515 11.2023C8.56475 11.2819 8.62669 11.3774 8.66694 11.4825C8.70719 11.5876 8.72484 11.7001 8.71875 11.8125V12.6562C8.71875 12.9605 8.81744 13.2566 9 13.5H3.65625ZM10.125 13.5C9.95092 13.4995 9.78126 13.4452 9.63926 13.3445C9.49727 13.2438 9.3899 13.1016 9.33187 12.9375H10.6875C10.7609 12.9327 10.8345 12.9434 10.9036 12.9687C10.9727 12.9941 11.0357 13.0336 11.0886 13.0846C11.1416 13.1357 11.1833 13.1973 11.2111 13.2654C11.2388 13.3336 11.2521 13.4067 11.25 13.4803C11.1568 13.4927 11.0628 13.4993 10.9688 13.5H10.125ZM11.9278 13.1709C11.8872 13.2169 11.8409 13.2575 11.79 13.2918C11.7591 13.0792 11.6639 12.8811 11.517 12.7243C11.3702 12.5674 11.1789 12.4592 10.9688 12.4143V10.9687C10.9941 10.5098 10.8473 10.058 10.557 9.70162C10.2667 9.34528 9.85393 9.11012 9.39937 9.04216C9.47147 8.7899 9.595 8.55529 9.76219 8.35309C9.76946 8.34325 9.77604 8.33291 9.78187 8.32216C10.2184 8.67626 10.7437 8.90389 11.3006 8.98028L12.0938 12.4284C12.1383 12.6881 12.0787 12.9549 11.9278 13.1709ZM12.6562 12.3131L11.8828 8.99997C12.3587 9.00435 12.8289 8.89643 13.2553 8.68497L14.5828 11.7787L13.3566 13.5H12.375C12.4984 13.3308 12.5869 13.1387 12.6352 12.9349C12.6835 12.7311 12.6906 12.5197 12.6562 12.3131ZM15.1875 13.5H14.7037C14.7657 13.3927 14.8612 13.3089 14.9756 13.2615C15.09 13.2142 15.2169 13.2058 15.3365 13.2379C15.4561 13.2699 15.5618 13.3406 15.6372 13.4388C15.7125 13.537 15.7534 13.6574 15.7534 13.7812C15.7534 13.905 15.7125 14.0254 15.6372 14.1236C15.5618 14.2219 15.4561 14.2925 15.3365 14.3246C15.2169 14.3566 15.09 14.3483 14.9756 14.3009C14.8612 14.2535 14.7657 14.1697 14.7037 14.0625H15.1875C15.2621 14.0625 15.3336 14.0328 15.3864 13.9801C15.4391 13.9273 15.4688 13.8558 15.4688 13.7812C15.4688 13.7066 15.4391 13.6351 15.3864 13.5823C15.3336 13.5296 15.2621 13.5 15.1875 13.5ZM14.0456 13.5L14.1441 13.3622C14.1271 13.4071 14.113 13.4532 14.1019 13.5H14.0456ZM15.1875 15.4687C14.789 15.4683 14.4035 15.3269 14.0993 15.0695C13.7951 14.8121 13.5917 14.4554 13.5253 14.0625H14.1019C14.1635 14.2997 14.3009 14.5103 14.4931 14.6623C14.6854 14.8143 14.9221 14.8994 15.1671 14.9045C15.4122 14.9097 15.6522 14.8346 15.8507 14.6909C16.0492 14.5471 16.1953 14.3424 16.2668 14.108C16.3383 13.8735 16.3313 13.6221 16.2469 13.392C16.1624 13.162 16.0051 12.9658 15.7989 12.8333C15.5927 12.7008 15.3488 12.6393 15.1044 12.6581C14.8601 12.6769 14.6285 12.775 14.445 12.9375L15.0441 12.0937C15.0919 12.0937 15.1397 12.0937 15.1875 12.0937C15.6351 12.0937 16.0643 12.2715 16.3807 12.588C16.6972 12.9044 16.875 13.3337 16.875 13.7812C16.875 14.2288 16.6972 14.658 16.3807 14.9745C16.0643 15.2909 15.6351 15.4687 15.1875 15.4687Z" fill="#ffb800"/>
</svg>


